<svg width="200" height="200" viewBox="0 0 200 200" fill="none" xmlns="http://www.w3.org/2000/svg">
<g clip-path="url(#clip0_11_83)">
<path d="M50 100C77.6142 100 100 77.6142 100 50C100 77.6077 122.375 99.9894 149.98 100C122.375 100.011 100 122.392 100 150C100 122.386 77.6142 100 50 100C22.3857 100 3.3926e-06 122.386 2.1856e-06 150L0 200H50C77.6142 200 100 177.614 100 150C100 177.614 122.386 200 150 200H200V150C200 122.392 177.625 100.011 150.02 100C177.625 99.9894 200 77.6077 200 50V2.17753e-05L150 2.39609e-05C122.386 2.51679e-05 100 22.3857 100 50C100 22.3857 77.6142 1.18662e-05 50 1.30732e-05L1.74846e-05 0L1.09279e-05 50C7.3067e-06 77.6142 22.3857 100 50 100Z" fill="#7C3AED"/>
</g>
<defs>
<clipPath id="clip0_11_83">
<rect width="200" height="200" fill="white"/>
</clipPath>
</defs>
</svg>
