<svg width="200" height="200" viewBox="0 0 200 200" fill="none" xmlns="http://www.w3.org/2000/svg">
<path d="M100 122C121.539 122 139 139.461 139 161C139 182.539 121.539 200 100 200C78.4609 200 61 182.539 61 161C61 139.461 78.4609 122 100 122ZM39 61C60.5391 61 78 78.4609 78 100C78 121.539 60.5391 139 39 139C17.4609 139 -9.41504e-07 121.539 0 100C9.41504e-07 78.4609 17.4609 61 39 61ZM161 61C182.539 61 200 78.4609 200 100C200 121.539 182.539 139 161 139C139.461 139 122 121.539 122 100C122 78.4609 139.461 61 161 61ZM100 0C121.539 0 139 17.4609 139 39C139 60.5391 121.539 78 100 78C78.4609 78 61 60.5391 61 39C61 17.4609 78.4609 0 100 0Z" fill="#2563EB"/>
</svg>
