<svg width="200" height="200" viewBox="0 0 200 200" fill="none" xmlns="http://www.w3.org/2000/svg">
<g clip-path="url(#clip0_11_71)">
<path d="M99.999 100C127.613 100 149.999 122.386 149.999 150C149.999 177.615 127.613 200 99.999 200C72.4112 200 50.0417 177.658 49.999 150.079C49.9784 163.312 44.714 175.999 35.3555 185.356C25.9787 194.733 13.2607 200.001 0 200.001V100.001C13.2607 100.001 25.9787 105.269 35.3555 114.646C44.7135 124.003 49.9779 136.689 49.999 149.921C50.0417 122.343 72.4112 100 99.999 100ZM200 200.001C186.739 200.001 174.021 194.733 164.645 185.356C155.268 175.98 150 163.262 150 150.001C150 136.74 155.268 124.022 164.645 114.646C174.021 105.269 186.739 100.001 200 100.001V200.001ZM0 0C13.2608 2.58198e-06 25.9787 5.26768 35.3555 14.6445C44.7324 24.0213 49.999 36.7392 49.999 50C49.999 63.2608 44.7324 75.9787 35.3555 85.3555C25.9787 94.7324 13.2608 100.001 0 100.001V0ZM200 100.001C186.739 100.001 174.021 94.7322 164.646 85.3555C155.269 75.9787 149.999 63.2608 149.999 50C149.999 36.7392 155.269 24.0213 164.646 14.6445C174.021 5.26789 186.739 1.0664e-05 200 0V100.001ZM99.999 0C127.613 0 149.999 22.3858 149.999 50C149.999 77.6142 127.613 100 99.999 100C72.3848 100 49.999 77.6142 49.999 50C49.999 22.3858 72.3848 3.22173e-06 99.999 0Z" fill="#F59E0B"/>
</g>
<defs>
<clipPath id="clip0_11_71">
<rect width="200" height="200" fill="white"/>
</clipPath>
</defs>
</svg>
